<svg role="img" class="crossdoc-logo" xmlns="http://www.w3.org/2000/svg" width="234" height="84" fill="none"><path fill="#2F52A0" d="M132.251 57.9635C132.564 58.4757 132.876 58.9879 133.345 59.3293C133.814 59.6708 134.282 59.9269 134.907 60.0976C135.454 60.2684 136.079 60.3537 136.704 60.3537C137.173 60.3537 137.641 60.2683 138.11 60.183C138.579 60.0976 139.048 59.9269 139.438 59.6708C139.829 59.4147 140.141 59.0732 140.454 58.6464C140.688 58.2196 140.844 57.7074 140.844 57.1098C140.844 56.0854 140.219 55.3171 138.969 54.7196C137.72 54.2074 135.923 53.6952 133.658 53.183C132.72 52.9269 131.783 52.6708 130.923 52.4147C130.064 52.0732 129.283 51.7318 128.58 51.2196C127.877 50.7074 127.33 50.1098 126.939 49.3415C126.549 48.5732 126.315 47.6342 126.315 46.5244C126.315 44.9025 126.627 43.5366 127.174 42.5122C127.721 41.4879 128.502 40.6342 129.517 40.0366C130.455 39.4391 131.548 39.0122 132.72 38.7562C133.892 38.5001 135.142 38.4147 136.392 38.4147C137.641 38.4147 138.891 38.5854 140.063 38.8415C141.235 39.0976 142.328 39.5244 143.266 40.2074C144.203 40.8049 144.984 41.6586 145.609 42.683C146.234 43.7074 146.625 44.9879 146.703 46.6098H140.61C140.532 45.244 140.063 44.3903 139.204 43.8781C138.344 43.3659 137.407 43.1952 136.235 43.1952C135.845 43.1952 135.454 43.1952 135.064 43.2805C134.673 43.3659 134.282 43.4513 133.892 43.622C133.579 43.7927 133.267 44.0488 133.033 44.3049C132.798 44.6464 132.642 45.0732 132.642 45.5854C132.642 46.183 132.876 46.6952 133.267 47.122C133.658 47.5488 134.204 47.8049 134.907 48.061C135.61 48.3171 136.392 48.4879 137.251 48.744C138.11 48.9147 138.969 49.1708 139.907 49.3415C140.844 49.5976 141.704 49.8537 142.641 50.1952C143.5 50.5366 144.281 50.9635 144.984 51.4757C145.687 51.9879 146.234 52.6708 146.625 53.5244C147.015 54.2927 147.25 55.3171 147.25 56.5122C147.25 58.2196 146.937 59.5854 146.312 60.6952C145.687 61.8049 144.906 62.744 143.891 63.4269C142.875 64.1098 141.782 64.622 140.532 64.8781C139.282 65.1342 137.954 65.3049 136.626 65.3049C135.298 65.3049 133.97 65.1342 132.642 64.8781C131.314 64.622 130.22 64.1098 129.205 63.4269C128.189 62.744 127.408 61.8049 126.705 60.6952C126.08 59.5854 125.69 58.1342 125.611 56.4269H131.705C131.861 56.7683 132.017 57.4513 132.251 57.9635ZM108.113 57.9635C108.426 58.4757 108.738 58.9879 109.207 59.3293C109.676 59.6708 110.144 59.9269 110.769 60.0976C111.316 60.2684 111.941 60.3537 112.566 60.3537C113.035 60.3537 113.503 60.2683 113.972 60.183C114.441 60.0976 114.91 59.9269 115.3 59.6708C115.691 59.4147 116.003 59.0732 116.316 58.6464C116.55 58.2196 116.706 57.7074 116.706 57.1098C116.706 56.0854 116.081 55.3171 114.831 54.7196C113.582 54.2074 111.785 53.6952 109.519 53.183C108.582 52.9269 107.645 52.6708 106.785 52.4147C105.926 52.0732 105.145 51.7318 104.442 51.2196C103.739 50.7074 103.192 50.1098 102.801 49.3415C102.411 48.5732 102.176 47.6342 102.176 46.5244C102.176 44.9025 102.489 43.5366 103.036 42.5122C103.583 41.4879 104.364 40.6342 105.379 40.0366C106.317 39.4391 107.41 39.0122 108.582 38.7562C109.754 38.5001 111.004 38.4147 112.254 38.4147C113.503 38.4147 114.753 38.5854 115.925 38.8415C117.097 39.0976 118.19 39.5244 119.128 40.2074C120.065 40.8049 120.846 41.6586 121.471 42.683C122.096 43.7074 122.487 44.9879 122.565 46.6098H116.472C116.394 45.244 115.925 44.3903 115.066 43.8781C114.206 43.3659 113.269 43.1952 112.097 43.1952C111.707 43.1952 111.316 43.1952 110.926 43.2805C110.535 43.3659 110.144 43.4513 109.754 43.622C109.441 43.7927 109.129 44.0488 108.895 44.3049C108.66 44.6464 108.504 45.0732 108.504 45.5854C108.504 46.183 108.738 46.6952 109.129 47.122C109.519 47.5488 110.066 47.8049 110.769 48.061C111.472 48.3171 112.254 48.4879 113.113 48.744C113.972 48.9147 114.831 49.1708 115.769 49.3415C116.706 49.5976 117.565 49.8537 118.503 50.1952C119.362 50.5366 120.143 50.9635 120.846 51.4757C121.549 51.9879 122.096 52.6708 122.487 53.5244C122.877 54.2927 123.112 55.3171 123.112 56.5122C123.112 58.2196 122.799 59.5854 122.174 60.6952C121.549 61.8049 120.768 62.744 119.753 63.4269C118.737 64.1098 117.644 64.622 116.394 64.8781C115.144 65.1342 113.816 65.3049 112.488 65.3049C111.16 65.3049 109.832 65.1342 108.504 64.8781C107.176 64.622 106.082 64.1098 105.067 63.4269C104.051 62.744 103.27 61.8049 102.567 60.6952C101.942 59.5854 101.552 58.1342 101.473 56.4269H107.567C107.723 56.7683 107.879 57.4513 108.113 57.9635ZM75.4606 46.0976C76.0074 44.4757 76.8667 43.0244 77.8822 41.9147C78.8977 40.7196 80.2257 39.8659 81.6318 39.183C83.116 38.5854 84.7565 38.244 86.5532 38.244C88.3498 38.244 90.0684 38.5854 91.5526 39.183C93.0368 39.7805 94.2867 40.7196 95.3803 41.9147C96.3959 43.1098 97.2551 44.4757 97.802 46.0976C98.3488 47.7196 98.6612 49.5976 98.6612 51.6464C98.6612 53.6952 98.3488 55.4879 97.802 57.1098C97.2551 58.7318 96.3959 60.183 95.3803 61.2927C94.3648 62.4879 93.0368 63.3415 91.5526 63.9391C90.0684 64.5366 88.428 64.8781 86.5532 64.8781C84.7565 64.8781 83.0379 64.5366 81.6318 63.9391C80.1476 63.3415 78.8977 62.4025 77.8822 61.2927C76.8667 60.0976 76.0074 58.7318 75.4606 57.1098C74.9138 55.4879 74.6013 53.6098 74.6013 51.6464C74.6013 49.5976 74.8357 47.7196 75.4606 46.0976ZM81.2412 54.5488C81.3975 55.4879 81.7099 56.3415 82.1786 57.1952C82.6473 57.9635 83.1942 58.561 83.8972 59.0732C84.6003 59.5001 85.5377 59.7562 86.6313 59.7562C87.7249 59.7562 88.5842 59.5001 89.3654 59.0732C90.0684 58.6464 90.6934 57.9635 91.0839 57.1952C91.5526 56.4269 91.787 55.5732 92.0213 54.5488C92.1776 53.6098 92.2557 52.5854 92.2557 51.561C92.2557 50.5366 92.1776 49.5123 92.0213 48.5732C91.8651 47.5488 91.5526 46.6952 91.0839 45.9269C90.6152 45.1586 90.0684 44.561 89.3654 44.0488C88.6623 43.5366 87.7249 43.3659 86.6313 43.3659C85.5377 43.3659 84.6784 43.622 83.8972 44.0488C83.1942 44.561 82.5692 45.1586 82.1786 45.9269C81.7099 46.6952 81.4756 47.5488 81.2412 48.5732C81.0069 49.5976 81.0069 50.5366 81.0069 51.561C80.9288 52.5854 81.085 53.6098 81.2412 54.5488ZM64.6805 38.8415V43.5366H64.7586C65.0711 42.7683 65.4617 42.0001 66.0085 41.3171C66.5553 40.6342 67.1021 40.0366 67.7271 39.6098C68.352 39.0976 69.055 38.7561 69.8362 38.5001C70.6174 38.244 71.3985 38.0732 72.1797 38.0732C72.5703 38.0732 73.039 38.1586 73.5858 38.3293V44.8171C73.2733 44.7318 72.9609 44.7318 72.4922 44.6464C72.1016 44.561 71.6329 44.561 71.2423 44.561C70.0706 44.561 69.055 44.7318 68.2739 45.1586C67.4927 45.5854 66.7897 46.183 66.321 46.8659C65.8523 47.5488 65.4617 48.4879 65.2273 49.4269C64.993 50.4513 64.9149 51.4757 64.9149 52.5854V64.0244H58.5874V38.8415H64.6805ZM46.5574 38.5854C46.1669 37.8171 45.62 37.2196 44.9951 36.622C44.3702 36.0244 43.6671 35.5976 42.886 35.3415C42.1048 35.0001 41.2455 34.9147 40.3862 34.9147C38.8239 34.9147 37.4178 35.2561 36.3242 35.9391C35.2305 36.622 34.2931 37.4757 33.5901 38.6708C32.887 39.7805 32.4183 41.061 32.1059 42.5122C31.7934 43.9635 31.6372 45.4147 31.6372 46.9513C31.6372 48.4025 31.7934 49.8537 32.1059 51.2196C32.4183 52.5854 32.887 53.8659 33.5901 54.9757C34.2931 56.0854 35.1524 57.0244 36.3242 57.622C37.4178 58.3049 38.7458 58.6464 40.3862 58.6464C42.5735 58.6464 44.2139 57.9635 45.4638 56.5122C46.7137 55.061 47.4167 53.183 47.6511 50.7927H54.4472C54.291 53.0123 53.8223 54.9757 53.0411 56.7683C52.26 58.561 51.3226 60.0123 50.0727 61.2927C48.8228 62.5732 47.4167 63.5122 45.7763 64.1098C44.1358 64.7927 42.3391 65.1342 40.3081 65.1342C37.8865 65.1342 35.6211 64.7074 33.6682 63.7683C31.7153 62.8293 30.0748 61.5488 28.6687 59.9269C27.3408 58.3049 26.2471 56.3415 25.5441 54.122C24.841 51.9025 24.4504 49.5122 24.4504 46.9513C24.4504 44.3049 24.841 41.9147 25.5441 39.6952C26.2471 37.4757 27.2626 35.5122 28.6687 33.8049C29.9967 32.0976 31.6372 30.8171 33.6682 29.8781C35.6211 28.9391 37.8084 28.4269 40.3081 28.4269C42.1048 28.4269 43.7452 28.683 45.3076 29.2805C46.8699 29.8781 48.276 30.6464 49.5259 31.6708C50.7757 32.6952 51.7913 34.061 52.5724 35.5976C53.3536 37.1342 53.9004 39.0122 54.1348 40.9757H47.3386C47.2605 40.122 47.0261 39.2683 46.5574 38.5854Z"/><path fill="#36A9E1" d="M222.945 43.4512C221.929 43.4512 221.07 43.7073 220.367 44.2195C219.664 44.7317 219.117 45.4146 218.649 46.1829C218.18 46.9512 217.946 47.8902 217.711 48.8292C217.555 49.7682 217.477 50.7926 217.477 51.7317C217.477 52.6707 217.555 53.6097 217.711 54.5487C217.867 55.4878 218.18 56.3414 218.57 57.1097C218.961 57.878 219.508 58.4756 220.211 58.9877C220.914 59.4999 221.773 59.756 222.711 59.756C224.273 59.756 225.445 59.3292 226.226 58.3902C227.085 57.4512 227.554 56.1707 227.788 54.6341H233.959C233.569 58.0487 232.319 60.6097 230.366 62.317C228.413 64.1097 225.835 64.9634 222.789 64.9634C221.07 64.9634 219.43 64.6219 218.024 64.0243C216.539 63.4268 215.368 62.4878 214.352 61.378C213.337 60.2682 212.555 58.9024 211.931 57.2804C211.384 55.6585 211.071 53.9512 211.071 52.0731C211.071 50.1097 211.306 48.317 211.852 46.6097C212.399 44.9024 213.18 43.4512 214.196 42.256C215.211 41.0609 216.461 40.0365 217.946 39.3536C219.43 38.6707 221.07 38.3292 222.945 38.3292C224.351 38.3292 225.679 38.4999 226.929 38.9268C228.179 39.3536 229.351 39.9512 230.366 40.7195C231.382 41.4878 232.163 42.5121 232.788 43.7073C233.413 44.9024 233.803 46.3536 233.881 47.9756H227.632C227.241 44.9024 225.679 43.4512 222.945 43.4512ZM184.512 46.0975C185.058 44.4756 185.918 43.0243 186.933 41.9146C187.949 40.7195 189.277 39.8658 190.683 39.1829C192.167 38.5853 193.808 38.2438 195.604 38.2438C197.401 38.2438 199.119 38.5853 200.604 39.1829C202.088 39.7804 203.338 40.7195 204.431 41.9146C205.447 43.1097 206.306 44.4756 206.853 46.0975C207.4 47.7195 207.712 49.5975 207.712 51.6463C207.712 53.6951 207.4 55.4878 206.853 57.1097C206.306 58.7317 205.447 60.1829 204.431 61.2926C203.416 62.4878 202.088 63.3414 200.604 63.939C199.119 64.5365 197.479 64.878 195.604 64.878C193.808 64.878 192.089 64.5365 190.683 63.939C189.199 63.3414 187.949 62.4024 186.933 61.2926C185.918 60.0975 185.058 58.7317 184.512 57.1097C183.965 55.4878 183.652 53.6097 183.652 51.6463C183.652 49.5975 183.965 47.7195 184.512 46.0975ZM190.292 54.5487C190.448 55.4878 190.761 56.3414 191.23 57.1951C191.698 57.9634 192.245 58.5609 192.948 59.0731C193.651 59.4999 194.589 59.756 195.682 59.756C196.776 59.756 197.635 59.4999 198.416 59.0731C199.119 58.6463 199.744 57.9634 200.135 57.1951C200.604 56.4268 200.838 55.5731 201.072 54.5487C201.229 53.6097 201.307 52.5853 201.307 51.5609C201.307 50.5365 201.229 49.5121 201.072 48.5731C200.916 47.5487 200.604 46.6951 200.135 45.9268C199.666 45.1585 199.119 44.5609 198.416 44.0487C197.713 43.5365 196.776 43.3658 195.682 43.3658C194.589 43.3658 193.729 43.6219 192.948 44.0487C192.245 44.5609 191.62 45.1585 191.23 45.9268C190.761 46.6951 190.527 47.5487 190.292 48.5731C190.058 49.5975 190.058 50.5365 190.058 51.5609C190.058 52.5853 190.136 53.6097 190.292 54.5487ZM165.607 29.1951C167.638 29.1951 169.591 29.5365 171.388 30.3048C173.185 30.9878 174.747 32.0975 175.997 33.5487C177.325 34.9999 178.34 36.7926 179.043 38.9268C179.747 41.0609 180.137 43.6219 180.137 46.5243C180.137 49.0853 179.825 51.4756 179.2 53.6097C178.575 55.7438 177.715 57.6219 176.466 59.2439C175.216 60.8658 173.732 62.0609 171.935 62.9146C170.138 63.8536 167.951 64.2804 165.529 64.2804H151.703V29.1951H165.607ZM165.061 57.7926C166.076 57.7926 167.092 57.6219 168.029 57.2804C168.966 56.939 169.826 56.3414 170.607 55.4878C171.388 54.6341 171.935 53.5243 172.404 52.2438C172.872 50.878 173.107 49.256 173.107 47.2926C173.107 45.4999 172.95 43.9634 172.638 42.5121C172.325 41.0609 171.779 39.8658 171.076 38.8414C170.373 37.817 169.435 37.0487 168.185 36.5365C167.014 36.0243 165.529 35.7682 163.811 35.7682H158.811V57.878H165.061V57.7926Z"/><path fill="#828282" d="M144.203 81.0122C143.735 81.3537 143.188 81.6098 142.485 81.6098C142.016 81.6098 141.547 81.5244 141.235 81.3537C140.844 81.183 140.61 80.9269 140.298 80.6708C140.063 80.3293 139.907 79.9878 139.751 79.561C139.595 79.1342 139.595 78.7074 139.516 78.1952C139.516 77.683 139.595 77.2561 139.751 76.8293C139.907 76.4025 140.063 76.061 140.376 75.7196C140.61 75.3781 140.923 75.2074 141.313 75.0366C141.626 74.8659 142.016 74.7805 142.485 74.7805C143.032 74.7805 143.5 74.8659 143.813 75.122C144.203 75.3781 144.438 75.6342 144.672 76.061C144.906 76.4025 145.063 76.8293 145.141 77.2561C145.219 77.683 145.219 78.1098 145.219 78.5366H140.61C140.61 78.7927 140.61 79.1342 140.688 79.3903C140.766 79.6464 140.844 79.9025 141.001 80.0732C141.157 80.244 141.391 80.4147 141.626 80.5854C141.86 80.6708 142.172 80.7561 142.485 80.7561C142.875 80.7561 143.266 80.6708 143.5 80.4147C143.735 80.1586 143.969 79.9025 144.047 79.4757H145.063C144.906 80.0732 144.672 80.5854 144.203 81.0122ZM143.969 76.744C143.891 76.4879 143.735 76.3171 143.578 76.1464C143.422 75.9757 143.266 75.8049 143.032 75.7196C142.797 75.6342 142.563 75.5488 142.329 75.5488C142.094 75.5488 141.86 75.6342 141.626 75.7196C141.391 75.8049 141.235 75.9757 141.079 76.1464C140.923 76.3171 140.844 76.4879 140.688 76.744C140.61 77 140.532 77.1708 140.532 77.5122H144.047C144.125 77.1708 144.047 77 143.969 76.744ZM137.876 81.0122C137.407 81.3537 136.86 81.6098 136.157 81.6098C135.689 81.6098 135.22 81.5244 134.908 81.3537C134.517 81.183 134.283 80.9269 133.97 80.6708C133.736 80.3293 133.58 79.9878 133.423 79.561C133.267 79.1342 133.267 78.7074 133.189 78.1952C133.189 77.683 133.267 77.2561 133.423 76.8293C133.58 76.4025 133.736 76.061 134.048 75.7196C134.283 75.3781 134.595 75.2074 134.986 75.0366C135.298 74.8659 135.689 74.7805 136.157 74.7805C136.704 74.7805 137.173 74.8659 137.485 75.122C137.876 75.3781 138.11 75.6342 138.345 76.061C138.579 76.4025 138.735 76.8293 138.813 77.2561C138.891 77.683 138.891 78.1098 138.891 78.5366H134.361C134.361 78.7927 134.361 79.1342 134.439 79.3903C134.517 79.6464 134.595 79.9025 134.751 80.0732C134.908 80.244 135.142 80.4147 135.376 80.5854C135.611 80.6708 135.923 80.7561 136.236 80.7561C136.626 80.7561 137.017 80.6708 137.251 80.4147C137.485 80.1586 137.72 79.9025 137.798 79.4757H138.813C138.657 80.0732 138.345 80.5854 137.876 81.0122ZM137.642 76.744C137.563 76.4879 137.407 76.3171 137.251 76.1464C137.095 75.9757 136.939 75.8049 136.704 75.7196C136.47 75.6342 136.236 75.5488 136.001 75.5488C135.767 75.5488 135.532 75.6342 135.298 75.7196C135.064 75.8049 134.908 75.9757 134.751 76.1464C134.595 76.3171 134.517 76.4879 134.361 76.744C134.283 77 134.204 77.1708 134.204 77.5122H137.72C137.798 77.1708 137.72 77 137.642 76.744ZM137.563 72.0488L136.001 73.9269H135.22L136.236 72.0488H137.563ZM128.424 79.9025C128.502 80.0732 128.658 80.2439 128.814 80.3293C128.971 80.4147 129.127 80.5 129.361 80.5C129.517 80.5854 129.752 80.5854 129.986 80.5854C130.142 80.5854 130.299 80.5854 130.455 80.5854C130.611 80.5854 130.767 80.5 130.924 80.4147C131.08 80.3293 131.158 80.244 131.314 80.0732C131.392 79.9025 131.47 79.7318 131.47 79.561C131.47 79.3049 131.392 79.0488 131.158 78.8781C130.924 78.7074 130.689 78.622 130.455 78.5366C130.221 78.4513 129.83 78.3659 129.517 78.2805C129.205 78.1952 128.814 78.1098 128.58 77.9391C128.268 77.7683 128.033 77.5976 127.877 77.3415C127.643 77.0854 127.565 76.744 127.565 76.3171C127.565 75.9757 127.643 75.7196 127.799 75.4635C127.955 75.2074 128.111 75.0366 128.346 74.8659C128.58 74.6952 128.814 74.6098 129.049 74.5244C129.283 74.4391 129.596 74.4391 129.83 74.4391C130.142 74.4391 130.455 74.4391 130.767 74.5244C131.08 74.6098 131.314 74.6952 131.549 74.8659C131.783 75.0366 131.939 75.2074 132.095 75.5488C132.252 75.8049 132.33 76.1464 132.33 76.5732H131.236C131.236 76.3171 131.158 76.1464 131.08 76.061C131.002 75.8903 130.845 75.8049 130.767 75.7196C130.611 75.6342 130.455 75.5488 130.299 75.5488C130.142 75.5488 129.986 75.4635 129.83 75.4635C129.674 75.4635 129.517 75.4635 129.361 75.4635C129.205 75.4635 129.049 75.5488 128.971 75.6342C128.814 75.7196 128.736 75.8049 128.658 75.8903C128.58 75.9757 128.502 76.1464 128.502 76.3171C128.502 76.4879 128.58 76.6586 128.658 76.744C128.814 76.8293 128.971 77 129.127 77.0854C129.283 77.1708 129.517 77.2561 129.752 77.2561C129.986 77.3415 130.221 77.3415 130.455 77.4269C130.689 77.5122 130.924 77.5976 131.158 77.683C131.392 77.7683 131.627 77.8537 131.783 78.0244C131.939 78.1952 132.095 78.3659 132.252 78.5366C132.33 78.7927 132.408 79.0488 132.408 79.3049C132.408 79.7318 132.33 80.0732 132.173 80.3293C132.017 80.5854 131.783 80.8415 131.549 81.0122C131.314 81.183 131.002 81.2683 130.689 81.3537C130.377 81.4391 130.064 81.4391 129.752 81.4391C129.439 81.4391 129.127 81.4391 128.814 81.3537C128.502 81.2683 128.268 81.183 128.033 81.0122C127.799 80.8415 127.643 80.5854 127.486 80.3293C127.33 80.0732 127.252 79.7318 127.252 79.3049H128.268C128.346 79.561 128.346 79.7318 128.424 79.9025ZM126.158 74.7805V81.4391H125.143V74.7805H126.158ZM125.143 73.5854V72.2196H126.158V73.5854H125.143ZM123.503 72.2196V81.3537H122.487V72.2196H123.503ZM120.925 72.2196V81.3537H119.909V72.2196H120.925ZM117.878 81.0122C117.409 81.3537 116.863 81.6098 116.16 81.6098C115.691 81.6098 115.222 81.5244 114.91 81.3537C114.519 81.183 114.285 80.9269 113.972 80.6708C113.738 80.3293 113.582 79.9878 113.425 79.561C113.269 79.1342 113.269 78.7074 113.191 78.1952C113.191 77.683 113.269 77.2561 113.425 76.8293C113.582 76.4025 113.738 76.061 114.05 75.7196C114.285 75.3781 114.597 75.2074 114.988 75.0366C115.3 74.8659 115.691 74.7805 116.16 74.7805C116.706 74.7805 117.175 74.8659 117.488 75.122C117.878 75.3781 118.112 75.6342 118.347 76.061C118.581 76.4025 118.737 76.8293 118.816 77.2561C118.894 77.683 118.894 78.1098 118.894 78.5366H114.363C114.363 78.7927 114.363 79.1342 114.441 79.3903C114.519 79.6464 114.597 79.9025 114.753 80.0732C114.91 80.244 115.144 80.4147 115.378 80.5854C115.613 80.6708 115.925 80.7561 116.238 80.7561C116.628 80.7561 117.019 80.6708 117.253 80.4147C117.488 80.1586 117.722 79.9025 117.8 79.4757H118.816C118.581 80.0732 118.347 80.5854 117.878 81.0122ZM117.644 76.744C117.566 76.4879 117.409 76.3171 117.253 76.1464C117.097 75.9757 116.941 75.8049 116.706 75.7196C116.472 75.6342 116.238 75.5488 116.003 75.5488C115.769 75.5488 115.535 75.6342 115.3 75.7196C115.066 75.8049 114.91 75.9757 114.753 76.1464C114.597 76.3171 114.519 76.4879 114.363 76.744C114.285 77 114.207 77.1708 114.207 77.5122H117.722C117.722 77.1708 117.722 77 117.644 76.744ZM111.238 77.1708C111.16 76.9147 111.082 76.5732 110.926 76.4025C110.769 76.1464 110.613 75.9757 110.301 75.8903C110.066 75.7196 109.754 75.7196 109.442 75.7196C109.129 75.7196 108.817 75.8049 108.582 75.9757C108.348 76.1464 108.192 76.3171 108.035 76.5732C107.879 76.8293 107.801 77.0854 107.723 77.3415C107.645 77.683 107.645 77.9391 107.645 78.2805C107.645 78.622 107.645 78.9635 107.723 79.2196C107.801 79.561 107.879 79.8171 108.035 79.9878C108.192 80.1586 108.348 80.4147 108.66 80.5854C108.895 80.7561 109.207 80.7561 109.52 80.7561C109.832 80.7561 110.145 80.6708 110.379 80.5C110.613 80.3293 110.769 80.1586 110.926 79.9025C111.082 79.6464 111.16 79.3903 111.238 79.0488C111.316 78.7074 111.316 78.4513 111.316 78.1098C111.316 77.7683 111.316 77.4269 111.238 77.1708ZM107.645 72.2196V75.6342C107.801 75.2927 108.035 75.0366 108.426 74.8659C108.817 74.6952 109.129 74.6098 109.598 74.6098C110.066 74.6098 110.457 74.6952 110.848 74.8659C111.16 75.0366 111.473 75.2927 111.707 75.6342C111.941 75.9757 112.097 76.3171 112.254 76.744C112.41 77.1708 112.41 77.5976 112.41 78.1098C112.41 78.622 112.332 79.0488 112.254 79.4757C112.176 79.9025 111.941 80.244 111.707 80.5854C111.473 80.9269 111.16 81.183 110.848 81.3537C110.535 81.5244 110.066 81.6098 109.598 81.6098C109.442 81.6098 109.285 81.6098 109.129 81.5244C108.973 81.5244 108.738 81.4391 108.582 81.3537C108.426 81.2683 108.27 81.183 108.035 81.0122C107.879 80.8415 107.723 80.7561 107.645 80.5V81.3537H106.629V72.2196H107.645ZM103.505 78.1952C103.27 78.2805 103.114 78.2805 102.88 78.2805C102.645 78.2805 102.411 78.3659 102.177 78.3659C101.942 78.3659 101.708 78.4513 101.552 78.5366C101.395 78.622 101.239 78.7074 101.083 78.8781C101.005 79.0488 100.927 79.2196 100.927 79.561C100.927 79.7318 100.927 79.9025 101.005 79.9878C101.083 80.0732 101.161 80.2439 101.239 80.3293C101.317 80.4147 101.474 80.5 101.63 80.5C101.786 80.5 101.942 80.5854 102.099 80.5854C102.411 80.5854 102.723 80.5 102.958 80.4147C103.192 80.3293 103.348 80.1586 103.505 80.0732C103.661 79.9025 103.739 79.7318 103.817 79.561C103.895 79.3903 103.895 79.2196 103.895 79.0488V77.9391C103.895 78.1098 103.739 78.1952 103.505 78.1952ZM104.911 81.5244C104.676 81.5244 104.442 81.4391 104.286 81.2683C104.13 81.0976 104.051 80.8415 104.051 80.5C103.739 80.8415 103.427 81.0976 103.114 81.2683C102.723 81.4391 102.333 81.5244 101.942 81.5244C101.63 81.5244 101.395 81.5244 101.161 81.4391C100.927 81.3537 100.692 81.2683 100.536 81.0976C100.38 80.9269 100.224 80.7561 100.068 80.5C99.9894 80.244 99.9113 79.9879 99.9113 79.6464C99.9113 79.3049 99.9894 78.9635 100.068 78.7074C100.224 78.4513 100.302 78.2805 100.536 78.1098C100.692 77.9391 100.927 77.8537 101.161 77.7683C101.395 77.683 101.63 77.5976 101.942 77.5976C102.255 77.5122 102.489 77.5122 102.723 77.4269C102.958 77.4269 103.192 77.3415 103.348 77.2561C103.505 77.1708 103.661 77.0854 103.817 77C103.895 76.9147 103.973 76.7439 103.973 76.5732C103.973 76.3171 103.895 76.1464 103.817 75.9757C103.739 75.8049 103.661 75.7196 103.505 75.6342C103.348 75.5488 103.192 75.4635 103.036 75.4635C102.88 75.4635 102.723 75.4635 102.567 75.4635C102.177 75.4635 101.786 75.5488 101.474 75.7196C101.161 75.8903 101.005 76.2318 101.005 76.744H99.9894C99.9894 76.3171 100.068 75.9757 100.224 75.7196C100.38 75.4635 100.536 75.2074 100.771 75.0366C101.005 74.8659 101.239 74.6952 101.552 74.6952C101.864 74.6098 102.177 74.6098 102.489 74.6098C102.802 74.6098 103.036 74.6098 103.27 74.6952C103.505 74.7805 103.817 74.8659 103.973 74.9513C104.208 75.122 104.364 75.2927 104.52 75.5488C104.676 75.8049 104.755 76.061 104.755 76.4879V79.9025C104.755 80.1586 104.755 80.3293 104.833 80.5C104.833 80.5854 104.989 80.6708 105.145 80.6708C105.223 80.6708 105.301 80.6708 105.458 80.5854V81.4391C105.458 81.5244 105.223 81.5244 104.911 81.5244ZM98.7395 72.2196V81.3537H97.724V72.2196H98.7395ZM92.4121 81.0122C91.9434 81.3537 91.3965 81.6098 90.6935 81.6098C90.2248 81.6098 89.7561 81.5244 89.4436 81.3537C89.0531 81.183 88.8187 80.9269 88.5062 80.6708C88.2719 80.3293 88.1156 79.9878 87.9594 79.561C87.8032 79.1342 87.8032 78.7074 87.7251 78.1952C87.7251 77.683 87.8032 77.2561 87.9594 76.8293C88.1156 76.4025 88.2719 76.061 88.5844 75.7196C88.8187 75.3781 89.1312 75.2074 89.5218 75.0366C89.8342 74.8659 90.2248 74.7805 90.6935 74.7805C91.2403 74.7805 91.709 74.8659 92.0215 75.122C92.4121 75.3781 92.6464 75.6342 92.8808 76.061C93.1151 76.4025 93.2714 76.8293 93.3495 77.2561C93.4276 77.683 93.4276 78.1098 93.4276 78.5366H88.8968C88.8968 78.7927 88.8968 79.1342 88.9749 79.3903C89.0531 79.6464 89.1312 79.9025 89.2874 80.0732C89.4436 80.244 89.678 80.4147 89.9123 80.5854C90.1467 80.6708 90.4592 80.7561 90.7716 80.7561C91.1622 80.7561 91.5528 80.6708 91.7871 80.4147C92.0215 80.1586 92.2558 79.9025 92.334 79.4757H93.3495C93.1151 80.0732 92.8027 80.5854 92.4121 81.0122ZM92.0996 76.744C92.0215 76.4879 91.8652 76.3171 91.709 76.1464C91.5528 75.9757 91.3966 75.8049 91.1622 75.7196C90.9279 75.6342 90.6935 75.5488 90.4592 75.5488C90.2248 75.5488 89.9905 75.6342 89.7561 75.7196C89.5218 75.8049 89.3655 75.9757 89.2093 76.1464C89.0531 76.3171 88.9749 76.4879 88.8187 76.744C88.7406 77 88.6625 77.1708 88.6625 77.5122H92.1777C92.2558 77.1708 92.2558 77 92.0996 76.744ZM82.96 79.9025C83.0381 80.0732 83.1943 80.2439 83.3505 80.3293C83.5068 80.4147 83.663 80.5 83.8974 80.5C84.0536 80.5854 84.2879 80.5854 84.5223 80.5854C84.6785 80.5854 84.8348 80.5854 84.991 80.5854C85.1472 80.5854 85.3035 80.5 85.4597 80.4147C85.6159 80.3293 85.694 80.244 85.8503 80.0732C85.9284 79.9025 86.0065 79.7318 86.0065 79.561C86.0065 79.3049 85.9284 79.0488 85.694 78.8781C85.4597 78.7074 85.2253 78.622 84.991 78.5366C84.7566 78.4513 84.3661 78.3659 84.0536 78.2805C83.7411 78.1952 83.3505 78.1098 83.1162 77.9391C82.8037 77.7683 82.5694 77.5976 82.4131 77.3415C82.1788 77.0854 82.1007 76.744 82.1007 76.3171C82.1007 75.9757 82.1788 75.7196 82.335 75.4635C82.4913 75.2074 82.6475 75.0366 82.8818 74.8659C83.1162 74.6952 83.3505 74.6098 83.5849 74.5244C83.8192 74.4391 84.1317 74.4391 84.3661 74.4391C84.6785 74.4391 84.991 74.4391 85.3035 74.5244C85.6159 74.6098 85.8503 74.6952 86.0846 74.8659C86.319 75.0366 86.4752 75.2074 86.6314 75.5488C86.7877 75.8049 86.8658 76.1464 86.8658 76.5732H85.8503C85.8503 76.3171 85.7722 76.1464 85.694 76.061C85.6159 75.8903 85.4597 75.8049 85.3816 75.7196C85.2253 75.6342 85.0691 75.5488 84.9129 75.5488C84.7566 75.5488 84.6004 75.4635 84.4442 75.4635C84.2879 75.4635 84.1317 75.4635 83.9755 75.4635C83.8192 75.4635 83.663 75.5488 83.5849 75.6342C83.4287 75.7196 83.3505 75.8049 83.2724 75.8903C83.1943 75.9757 83.1162 76.1464 83.1162 76.3171C83.1162 76.4879 83.1943 76.6586 83.2724 76.744C83.4286 76.8293 83.5849 77 83.7411 77.0854C83.8974 77.1708 84.1317 77.2561 84.3661 77.2561C84.6004 77.3415 84.8348 77.3415 85.0691 77.4269C85.3035 77.5122 85.5378 77.5976 85.7722 77.683C86.0065 77.7683 86.2409 77.8537 86.3971 78.0244C86.5533 78.1952 86.7096 78.3659 86.8658 78.5366C86.9439 78.7927 87.022 79.0488 87.022 79.3049C87.022 79.7318 86.9439 80.0732 86.7877 80.3293C86.6314 80.5854 86.3971 80.8415 86.1627 81.0122C85.9284 81.183 85.6159 81.2683 85.3035 81.3537C84.991 81.4391 84.6785 81.4391 84.3661 81.4391C84.0536 81.4391 83.7411 81.4391 83.4287 81.3537C83.1162 81.2683 82.8818 81.183 82.6475 81.0122C82.4131 80.8415 82.2569 80.5854 82.1007 80.3293C81.9444 80.0732 81.8663 79.7318 81.8663 79.3049H82.8818C82.8037 79.561 82.8818 79.7318 82.96 79.9025ZM80.6165 74.7805V81.4391H79.6791V74.7805H80.6165ZM79.6791 73.5854V72.2196H80.6946V73.5854H79.6791ZM78.5073 74.7805V75.7196H77.2574V79.8171C77.2574 79.9879 77.2574 80.0732 77.2574 80.1586C77.2574 80.244 77.3356 80.3293 77.3356 80.3293C77.4137 80.4147 77.4918 80.4147 77.5699 80.4147C77.648 80.4147 77.8043 80.4147 77.9605 80.4147H78.4292V81.3537H77.648C77.4137 81.3537 77.1793 81.3537 76.945 81.2683C76.7887 81.2683 76.6325 81.183 76.4763 81.0976C76.3982 81.0122 76.2419 80.8415 76.2419 80.6708C76.1638 80.5 76.1638 80.2439 76.1638 79.9025V75.6342H75.1483V74.6952H76.1638V72.7318H77.1793V74.6952H78.5073V74.7805ZM72.8829 74.7805V76.1464C73.1173 75.6342 73.4297 75.2074 73.7422 74.9513C74.1328 74.6952 74.5234 74.6098 75.0702 74.6098V75.8049C74.6796 75.8049 74.3671 75.8903 74.0547 75.9757C73.7422 76.061 73.5078 76.2318 73.3516 76.4879C73.1954 76.7439 73.0391 77 72.961 77.3415C72.8829 77.683 72.8048 78.0244 72.8048 78.4513V81.4391H71.7893V74.7805H72.8829ZM69.9145 81.0122C69.4458 81.3537 68.899 81.6098 68.1959 81.6098C67.7272 81.6098 67.2585 81.5244 66.946 81.3537C66.5555 81.183 66.3211 80.9269 66.0086 80.6708C65.7743 80.3293 65.6181 79.9878 65.4618 79.561C65.3056 79.1342 65.3056 78.7074 65.2275 78.1952C65.2275 77.683 65.3056 77.2561 65.4618 76.8293C65.6181 76.4025 65.7743 76.061 66.0868 75.7196C66.3211 75.3781 66.6336 75.2074 67.0242 75.0366C67.3366 74.8659 67.7272 74.7805 68.1959 74.7805C68.7427 74.7805 69.2114 74.8659 69.5239 75.122C69.9145 75.3781 70.1488 75.6342 70.3832 76.061C70.6175 76.4025 70.7738 76.8293 70.8519 77.2561C70.93 77.683 70.93 78.1098 70.93 78.5366H66.3992C66.3992 78.7927 66.3992 79.1342 66.4773 79.3903C66.5555 79.6464 66.6336 79.9025 66.7898 80.0732C66.946 80.244 67.1804 80.4147 67.4147 80.5854C67.6491 80.6708 67.9616 80.7561 68.274 80.7561C68.6646 80.7561 69.0552 80.6708 69.2895 80.4147C69.5239 80.1586 69.7582 79.9025 69.8364 79.4757H70.8519C70.6956 80.0732 70.3832 80.5854 69.9145 81.0122ZM69.6801 76.744C69.602 76.4879 69.4458 76.3171 69.2895 76.1464C69.1333 75.9757 68.9771 75.8049 68.7427 75.7196C68.5084 75.6342 68.274 75.5488 68.0397 75.5488C67.8053 75.5488 67.571 75.6342 67.3366 75.7196C67.1023 75.8049 66.946 75.9757 66.7898 76.1464C66.6336 76.3171 66.5555 76.4879 66.3992 76.744C66.3211 77 66.243 77.1708 66.243 77.5122H69.7582C69.8364 77.1708 69.8364 77 69.6801 76.744ZM63.2746 77.1708C63.1964 76.9147 63.1183 76.5732 62.9621 76.4025C62.8059 76.1464 62.6496 75.9757 62.3372 75.8903C62.1028 75.7196 61.7903 75.7196 61.4779 75.7196C61.1654 75.7196 60.8529 75.8049 60.6186 75.9757C60.3842 76.1464 60.228 76.3171 60.0718 76.5732C59.9156 76.8293 59.8374 77.0854 59.7593 77.3415C59.6812 77.683 59.6812 77.9391 59.6812 78.2805C59.6812 78.622 59.6812 78.9635 59.7593 79.2196C59.8374 79.561 59.9156 79.8171 60.0718 79.9878C60.228 80.2439 60.3842 80.4147 60.6967 80.5854C60.9311 80.7561 61.2435 80.7561 61.556 80.7561C61.8685 80.7561 62.1809 80.6708 62.4153 80.5C62.6496 80.3293 62.8059 80.1586 62.9621 79.9025C63.1183 79.6464 63.1964 79.3903 63.2746 79.0488C63.3527 78.7074 63.3527 78.4513 63.3527 78.1098C63.4308 77.7683 63.3527 77.4269 63.2746 77.1708ZM59.6812 74.7805V75.7196C59.8374 75.3781 60.0718 75.122 60.4624 74.9513C60.8529 74.7805 61.1654 74.6952 61.6341 74.6952C62.1028 74.6952 62.4934 74.7805 62.884 74.9513C63.1964 75.122 63.5089 75.3781 63.7433 75.7196C63.9776 76.061 64.1338 76.4025 64.2901 76.8293C64.4463 77.2561 64.4463 77.683 64.4463 78.1952C64.4463 78.7074 64.3682 79.1342 64.2901 79.561C64.212 79.9878 63.9776 80.3293 63.7433 80.6708C63.5089 81.0122 63.1964 81.2683 62.884 81.4391C62.5715 81.6098 62.1028 81.6952 61.6341 81.6952C61.4779 81.6952 61.3216 81.6952 61.1654 81.6098C61.0092 81.6098 60.7748 81.5244 60.6186 81.4391C60.4624 81.3537 60.3061 81.2683 60.0718 81.0976C59.9156 80.9269 59.7593 80.8415 59.6812 80.5854V84H58.6657V74.7805H59.6812ZM52.1039 74.7805H53.3538L54.838 77.0854L56.3222 74.7805H57.4939L55.4629 77.8537L57.8064 81.4391H56.5565L54.838 78.7074L53.1194 81.4391H51.8695L54.1349 77.9391L52.1039 74.7805ZM50.5415 81.0122C50.0728 81.3537 49.526 81.6098 48.823 81.6098C48.3543 81.6098 47.8856 81.5244 47.5731 81.3537C47.1825 81.183 46.9482 80.9269 46.6357 80.6708C46.4014 80.3293 46.2451 79.9878 46.0889 79.561C45.9327 79.1342 45.9327 78.7074 45.8546 78.1952C45.8546 77.683 45.9327 77.2561 46.0889 76.8293C46.2451 76.4025 46.4014 76.061 46.7138 75.7196C46.9482 75.3781 47.2606 75.2074 47.6512 75.0366C47.9637 74.8659 48.3543 74.7805 48.823 74.7805C49.3698 74.7805 49.8385 74.8659 50.151 75.122C50.5415 75.3781 50.7759 75.6342 51.0103 76.061C51.2446 76.4025 51.4008 76.8293 51.479 77.2561C51.5571 77.683 51.5571 78.1098 51.5571 78.5366H47.0263C47.0263 78.7927 47.0263 79.1342 47.1044 79.3903C47.1825 79.6464 47.2607 79.9025 47.4169 80.0732C47.5731 80.244 47.8075 80.4147 48.0418 80.5854C48.2762 80.6708 48.5886 80.7561 48.9011 80.7561C49.2917 80.7561 49.6823 80.6708 49.9166 80.4147C50.151 80.1586 50.3853 79.9025 50.4634 79.4757H51.479C51.3227 80.0732 51.0102 80.5854 50.5415 81.0122ZM50.3072 76.744C50.2291 76.4879 50.0729 76.3171 49.9166 76.1464C49.7604 75.9757 49.6042 75.8049 49.3698 75.7196C49.1355 75.6342 48.9011 75.5488 48.6667 75.5488C48.4324 75.5488 48.1981 75.6342 47.9637 75.7196C47.7294 75.8049 47.5731 75.9757 47.4169 76.1464C47.2607 76.3171 47.1825 76.4879 47.0263 76.744C46.9482 77 46.8701 77.1708 46.8701 77.5122H50.3853C50.4634 77.1708 50.3853 77 50.3072 76.744ZM44.2922 81.0122C43.8235 81.3537 43.2767 81.6098 42.5737 81.6098C42.105 81.6098 41.6363 81.5244 41.3238 81.3537C40.9332 81.183 40.6989 80.9269 40.3864 80.6708C40.152 80.3293 39.9958 79.9878 39.8396 79.561C39.6833 79.1342 39.6833 78.7074 39.6052 78.1952C39.6052 77.683 39.6833 77.2561 39.8396 76.8293C39.9958 76.4025 40.152 76.061 40.4645 75.7196C40.6989 75.3781 41.0113 75.2074 41.4019 75.0366C41.7144 74.8659 42.105 74.7805 42.5737 74.7805C43.1205 74.7805 43.5892 74.8659 43.9016 75.122C44.2922 75.3781 44.5266 75.6342 44.7609 76.061C44.9953 76.4025 45.1515 76.8293 45.2296 77.2561C45.3077 77.683 45.3077 78.1098 45.3077 78.5366H40.777C40.777 78.7927 40.777 79.1342 40.8551 79.3903C40.9332 79.6464 41.0113 79.9025 41.1676 80.0732C41.3238 80.244 41.5581 80.4147 41.7925 80.5854C42.0268 80.6708 42.3393 80.7561 42.6518 80.7561C43.0424 80.7561 43.4329 80.6708 43.6673 80.4147C43.9016 80.1586 44.136 79.9025 44.2141 79.4757H45.2296C44.9953 80.0732 44.6828 80.5854 44.2922 81.0122ZM43.9798 76.744C43.9016 76.4879 43.7454 76.3171 43.5892 76.1464C43.4329 75.9757 43.2767 75.8049 43.0424 75.7196C42.808 75.6342 42.5737 75.5488 42.3393 75.5488C42.105 75.5488 41.8706 75.6342 41.6363 75.7196C41.4019 75.8049 41.2457 75.9757 41.0894 76.1464C40.9332 76.3171 40.8551 76.4879 40.6989 76.744C40.6207 77 40.5426 77.1708 40.5426 77.5122H44.0579C44.136 77.1708 44.136 77 43.9798 76.744ZM43.9798 72.0488L42.4174 73.9269H41.6363L42.6518 72.0488H43.9798ZM38.4335 72.2196V81.3537H37.418V72.2196H38.4335ZM35.3088 81.0122C34.8401 81.3537 34.2933 81.6098 33.5902 81.6098C33.1215 81.6098 32.6528 81.5244 32.3404 81.3537C31.9498 81.183 31.7154 80.9269 31.403 80.6708C31.1686 80.3293 31.0124 79.9878 30.8562 79.561C30.6999 79.1342 30.6999 78.7074 30.6218 78.1952C30.6218 77.683 30.6999 77.2561 30.8562 76.8293C31.0124 76.4025 31.1686 76.061 31.4811 75.7196C31.7154 75.3781 32.0279 75.2074 32.4185 75.0366C32.731 74.8659 33.1215 74.7805 33.5902 74.7805C34.1371 74.7805 34.6058 74.8659 34.9182 75.122C35.3088 75.3781 35.5432 75.6342 35.7775 76.061C36.0119 76.4025 36.1681 76.8293 36.2462 77.2561C36.3243 77.683 36.3243 78.1098 36.3243 78.5366H31.7936C31.7936 78.7927 31.7936 79.1342 31.8717 79.3903C31.9498 79.6464 32.0279 79.9025 32.1841 80.0732C32.3404 80.244 32.5747 80.4147 32.8091 80.5854C33.0434 80.6708 33.3559 80.7561 33.6684 80.7561C34.0589 80.7561 34.4495 80.6708 34.6839 80.4147C34.9182 80.1586 35.1526 79.9025 35.2307 79.4757H36.2462C36.09 80.0732 35.7775 80.5854 35.3088 81.0122ZM35.0745 76.744C34.9963 76.4879 34.8401 76.3171 34.6839 76.1464C34.5276 75.9757 34.3714 75.8049 34.1371 75.7196C33.9027 75.6342 33.6684 75.5488 33.434 75.5488C33.1997 75.5488 32.9653 75.6342 32.731 75.7196C32.4966 75.8049 32.3404 75.9757 32.1841 76.1464C32.0279 76.3171 31.9498 76.4879 31.7936 76.744C31.7154 77 31.6373 77.1708 31.6373 77.5122H35.1526C35.2307 77.1708 35.1526 77 35.0745 76.744ZM34.9963 72.0488L33.434 73.9269H32.6528L33.6684 72.0488H34.9963ZM23.5913 73.244V72.2196H30.3093V73.244H27.4971V81.3537H26.4035V73.244H23.5913Z"/><path fill="#1D71B8" d="M13.5923 9.90247C16.092 9.90247 18.1231 12.122 18.1231 14.8537C18.1231 17.5854 16.092 19.8049 13.5923 19.8049H4.53077C2.03103 19.8049 0 17.5854 0 14.8537C0 12.122 2.03103 9.90247 4.53077 9.90247H13.5923Z"/><path fill="#F39200" d="M25.6223 9.90247C23.1226 9.90247 21.0916 12.122 21.0916 14.8537C21.0916 17.5854 23.1226 19.8049 25.6223 19.8049H34.6838C37.1836 19.8049 39.2146 17.5854 39.2146 14.8537C39.2146 12.122 37.1836 9.90247 34.6838 9.90247H25.6223Z"/><path fill="#F9B233" d="M39.2146 14.8536C39.2146 17.5853 37.1836 19.8049 34.6838 19.8049 37.1836 19.8049 39.2146 17.5853 39.2146 14.8536zM25.6223 0C28.122 0 30.1531 2.21951 30.1531 4.95122V9.90244 14.8537C30.1531 17.5854 32.1841 19.8049 34.6838 19.8049H25.6223C23.3569 19.8049 21.4821 18.0122 21.1697 15.622 21.1697 15.3659 21.0916 15.1098 21.0916 14.8537V4.95122C21.0916 2.21951 23.1226 0 25.6223 0z"/><path fill="#3AAA35" d="M13.5923 32.9513C16.092 32.9513 18.1231 30.7318 18.1231 28C18.1231 25.2683 16.092 23.0488 13.5923 23.0488H4.53077C2.03103 23.0488 0 25.2683 0 28C0 30.7318 2.03103 32.9513 4.53077 32.9513H13.5923Z"/><path fill="#95C11F" d="M0 28C0 25.2683 2.03103 23.0488 4.53077 23.0488C2.03103 23.0488 0 25.2683 0 28Z"/><path fill="#95C11F" d="M13.5923 42.8537C11.0926 42.8537 9.06153 40.6342 9.06153 37.9025V32.9513V28C9.06153 25.2683 7.03049 23.0488 4.53076 23.0488H13.5923C15.8577 23.0488 17.7325 24.8415 18.0449 27.2318C18.0449 27.4879 18.1231 27.744 18.1231 28V37.9025C18.1231 40.6342 16.092 42.8537 13.5923 42.8537Z"/><path fill="#36A9E1" d="M0 14.8536C0 17.5853 2.03103 19.8049 4.53077 19.8049C2.03103 19.8049 0 17.5853 0 14.8536Z"/><path fill="#36A9E1" d="M13.5923 0C11.0926 0 9.06153 2.21951 9.06153 4.95122V9.90244V14.8537C9.06153 17.5854 7.03049 19.8049 4.53076 19.8049H13.5923C15.8577 19.8049 17.7325 18.0122 18.0449 15.622C18.0449 15.3659 18.1231 15.1098 18.1231 14.8537V4.95122C18.1231 2.21951 16.092 0 13.5923 0Z"/></svg>
